<svg width="20" height="20" viewBox="0 0 20 20" fill="none" xmlns="http://www.w3.org/2000/svg">
<path d="M2.76645 4.87959C3.38473 4.87959 3.88594 4.37838 3.88594 3.76011C3.88594 3.14183 3.38473 2.64062 2.76645 2.64062C2.14818 2.64062 1.64697 3.14183 1.64697 3.76011C1.64697 4.37838 2.14818 4.87959 2.76645 4.87959Z" fill="#737980"/>
<path d="M18.486 3.75977H6.48596" stroke="#737980" stroke-width="1.3" stroke-linecap="round" stroke-linejoin="round"/>
<path d="M2.76645 11.1179C3.38473 11.1179 3.88594 10.6167 3.88594 9.99839C3.88594 9.38012 3.38473 8.87891 2.76645 8.87891C2.14818 8.87891 1.64697 9.38012 1.64697 9.99839C1.64697 10.6167 2.14818 11.1179 2.76645 11.1179Z" fill="#737980"/>
<path d="M18.486 9.99805H6.48596" stroke="#737980" stroke-width="1.3" stroke-linecap="round" stroke-linejoin="round"/>
<path d="M2.76645 17.3581C3.38473 17.3581 3.88594 16.8569 3.88594 16.2386C3.88594 15.6203 3.38473 15.1191 2.76645 15.1191C2.14818 15.1191 1.64697 15.6203 1.64697 16.2386C1.64697 16.8569 2.14818 17.3581 2.76645 17.3581Z" fill="#737980"/>
<path d="M18.486 16.2383H6.48596" stroke="#737980" stroke-width="1.3" stroke-linecap="round" stroke-linejoin="round"/>
</svg>
