<svg width="68" height="30" viewBox="0 0 68 30" fill="none" xmlns="http://www.w3.org/2000/svg">
<path d="M1.66016 8.59277C2.57702 8.59277 3.32011 9.33611 3.32031 10.2529V16.748C3.32031 18.799 4.98328 20.4617 7.03418 20.4619H11.0752C10.1925 19.2656 9.67006 17.7872 9.66992 16.1865C9.66992 12.2051 12.8976 8.97764 16.8789 8.97754C19.2318 8.97759 21.3209 10.1048 22.6367 11.8486C23.9524 10.1043 26.0432 8.97757 28.3965 8.97754C31.1154 8.97769 33.482 10.4834 34.71 12.7061C35.9377 10.4829 38.3051 8.97761 41.0244 8.97754C45.0058 8.97763 48.2334 12.2051 48.2334 16.1865C48.233 20.1676 45.0056 23.3954 41.0244 23.3955C39.2562 23.3955 37.6379 22.7568 36.3838 21.7002V27.3975C36.3838 28.3187 35.637 29.0654 34.7158 29.0654C33.7948 29.0653 33.0479 28.3186 33.0479 27.3975V21.6914C31.7922 22.7535 30.1697 23.3954 28.3965 23.3955C26.0427 23.3955 23.9524 22.2666 22.6367 20.5215C21.321 22.2661 19.2323 23.3955 16.8789 23.3955C16.6795 23.3955 16.4824 23.3832 16.2871 23.3672V23.376H11.3799V23.373H6.8916C3.08546 23.3728 0 20.2867 0 16.4805V10.2529C0.000200385 9.33619 0.743405 8.5929 1.66016 8.59277ZM55.4678 8.48047C56.3846 8.48048 57.1277 9.22577 57.1279 10.1426C58.0677 8.9847 59.6655 8.51177 61.1064 8.51172C63.9259 8.51172 67.3095 10.3582 67.3096 15.0527V21.749C67.3096 22.6659 66.5663 23.409 65.6494 23.4092C64.7324 23.4092 63.9893 22.666 63.9893 21.749V15.1777C63.9891 12.7993 62.7667 11.3594 60.6992 11.3594C58.6632 11.3908 57.0968 12.9871 57.1279 15.1777V21.749C57.1279 22.666 56.3848 23.4092 55.4678 23.4092C54.5508 23.4092 53.8076 22.666 53.8076 21.749V10.1406C53.8076 9.22366 54.5508 8.48047 55.4678 8.48047ZM50.9883 8.44922C51.9053 8.44922 52.6494 9.19239 52.6494 10.1094V21.7178C52.6494 22.6348 51.9053 23.3779 50.9883 23.3779C50.0715 23.3777 49.3281 22.6346 49.3281 21.7178V10.1094C49.3281 9.19254 50.0715 8.44947 50.9883 8.44922ZM16.8789 11.8779C14.4996 11.878 12.5703 13.8072 12.5703 16.1865C12.5706 18.5655 14.4998 20.494 16.8789 20.4941C19.258 20.4941 21.1862 18.5655 21.1865 16.1865C21.1865 13.8072 19.2582 11.878 16.8789 11.8779ZM28.3965 11.8779C26.0172 11.878 24.0879 13.8072 24.0879 16.1865C24.0882 18.5656 26.0174 20.4941 28.3965 20.4941C30.7755 20.4939 32.7038 18.5655 32.7041 16.1865C32.7041 13.8073 30.7757 11.8781 28.3965 11.8779ZM41.0244 11.8779C38.6451 11.878 36.7158 13.8072 36.7158 16.1865C36.7162 18.5655 38.6454 20.494 41.0244 20.4941C43.4035 20.4941 45.3317 18.5655 45.332 16.1865C45.332 13.8072 43.4037 11.878 41.0244 11.8779ZM50.9883 1C52.0847 1 52.8682 1.78249 52.8682 2.87793C52.8682 3.97336 52.0847 4.75586 50.9883 4.75586C49.8921 4.75564 49.1094 3.97321 49.1094 2.87793C49.1094 1.78265 49.8921 1.00022 50.9883 1Z" fill="#FF543F"/>
</svg>
