<svg width="36" height="36" viewBox="0 0 36 36" fill="none" xmlns="http://www.w3.org/2000/svg">
<rect width="36" height="36" rx="18" fill="white"/>
<path d="M29.8607 22.8134C28.6345 25.6516 26.42 27.9493 23.6288 29.2774C22.1968 29.9588 20.4834 29.3503 19.8021 27.9183C19.1207 26.4863 19.7293 24.773 21.1613 24.0917C22.6952 23.3618 23.9138 22.0981 24.5887 20.5358C25.2637 18.9736 25.3482 17.221 24.8282 15.6051C24.3082 13.9895 23.2194 12.6208 21.7659 11.7528C20.3124 10.8848 18.5916 10.5757 16.9237 10.8844C15.2555 11.193 13.7536 12.0987 12.6991 13.4341C11.7163 14.6787 9.91065 14.8909 8.66607 13.9081C7.42152 12.9254 7.20927 11.1198 8.19202 9.87518C10.1081 7.44869 12.8397 5.79984 15.8788 5.23749C18.9181 4.6751 22.0573 5.23788 24.7104 6.82224C27.3635 8.40659 29.3479 10.9034 30.2949 13.8458C31.2418 16.7881 31.0869 19.9751 29.8607 22.8134Z" fill="url(#paint0_linear_2277_13437)"/>
<path d="M8.58887 9.58058C9.59452 8.35441 11.4037 8.17562 12.6299 9.18126C13.8561 10.1869 14.0349 11.9961 13.0292 13.2223C11.95 14.5382 11.386 16.1998 11.4408 17.8963C11.4955 19.5926 12.165 21.2083 13.3231 22.4432C14.4812 23.678 16.0503 24.4492 17.7387 24.612C19.4273 24.7749 21.1207 24.318 22.5023 23.3248C23.7899 22.3992 25.5841 22.6926 26.5098 23.9802C27.4355 25.2678 27.142 27.062 25.8544 27.9877C23.344 29.7924 20.2639 30.625 17.1875 30.3283C14.1109 30.0316 11.2483 28.6258 9.13432 26.3718C7.02038 24.1178 5.8006 21.1709 5.70091 18.0815C5.60123 14.9922 6.62821 11.9712 8.58887 9.58058Z" fill="url(#paint1_linear_2277_13437)"/>
<path d="M30.2948 13.8455C30.7807 15.355 29.9508 16.9727 28.4412 17.4585C26.9316 17.9444 25.314 17.1144 24.8282 15.6048C24.3082 13.9892 23.2195 12.6205 21.766 11.7525C20.3124 10.8845 18.5917 10.5754 16.9237 10.884C15.2555 11.1927 13.7536 12.0984 12.6991 13.4338C11.7163 14.6784 9.91068 14.8906 8.66609 13.9078C7.42152 12.925 7.20929 11.1194 8.19204 9.87486C10.1081 7.44836 12.8397 5.79951 15.8788 5.23716C18.9181 4.67479 22.0572 5.23752 24.7103 6.82186C27.3634 8.40621 29.3478 10.903 30.2948 13.8455Z" fill="url(#paint2_linear_2277_13437)"/>
<defs>
<linearGradient id="paint0_linear_2277_13437" x1="13.7832" y1="31.6782" x2="7.56766" y2="8.90268" gradientUnits="userSpaceOnUse">
<stop stop-color="#E3FFA3"/>
<stop offset="1" stop-color="#FF5E49"/>
</linearGradient>
<linearGradient id="paint1_linear_2277_13437" x1="12.5448" y1="4.08923" x2="17.8705" y2="26.7928" gradientUnits="userSpaceOnUse">
<stop stop-color="#CDFF57" stop-opacity="0"/>
<stop offset="1" stop-color="#FF5E49"/>
</linearGradient>
<linearGradient id="paint2_linear_2277_13437" x1="13.7831" y1="31.6779" x2="7.56763" y2="8.90235" gradientUnits="userSpaceOnUse">
<stop stop-color="#E3FFA3"/>
<stop offset="1" stop-color="#FF5E49"/>
</linearGradient>
</defs>
</svg>
