<svg width="32" height="32" viewBox="0 0 32 32" fill="none" xmlns="http://www.w3.org/2000/svg">
  <g clip-path="url(#clip0_1224_1504)">
    <rect width="32" height="32" rx="16" fill="white" />
    <rect width="32" height="32" rx="16" fill="url(#paint0_linear_1224_1504)" />
    <g opacity="0.6" filter="url(#filter0_f_1224_1504)">
      <ellipse cx="26.9683" cy="2.55726" rx="10.9091" ry="5.50649" transform="rotate(28.4438 26.9683 2.55726)" fill="white" />
    </g>
    <g opacity="0.6" filter="url(#filter1_f_1224_1504)">
      <ellipse cx="6.4794" cy="29.6094" rx="13.2987" ry="6.96104" transform="rotate(34.735 6.4794 29.6094)" fill="white" />
    </g>
    <path d="M16.4884 24.4174C21.1544 24.1047 24.6835 20.0687 24.3708 15.4027C24.0582 10.7367 20.0221 7.20757 15.3561 7.52023" stroke="url(#paint1_linear_1224_1504)" stroke-width="4.57143" stroke-linecap="round" />
    <path d="M15.4079 7.51717C10.7419 7.82983 7.21276 11.8659 7.52542 16.5319C7.83809 21.1979 11.8741 24.727 16.5401 24.4143" stroke="url(#paint2_linear_1224_1504)" stroke-width="4.57143" stroke-linecap="round" />
    <path d="M16.4884 24.418C21.1544 24.1054 24.6835 20.0693 24.3708 15.4033" stroke="white" stroke-width="4.57143" stroke-linecap="round" />
  </g>
  <defs>
    <filter id="filter0_f_1224_1504" x="6.63187" y="-14.9345" width="40.6728" height="34.9833" filterUnits="userSpaceOnUse" color-interpolation-filters="sRGB">
      <feFlood flood-opacity="0" result="BackgroundImageFix" />
      <feBlend mode="normal" in="SourceGraphic" in2="BackgroundImageFix" result="shape" />
      <feGaussianBlur stdDeviation="5.19481" result="effect1_foregroundBlur_1224_1504" />
    </filter>
    <filter id="filter1_f_1224_1504" x="-18.6566" y="6.60776" width="50.272" height="46.0032" filterUnits="userSpaceOnUse" color-interpolation-filters="sRGB">
      <feFlood flood-opacity="0" result="BackgroundImageFix" />
      <feBlend mode="normal" in="SourceGraphic" in2="BackgroundImageFix" result="shape" />
      <feGaussianBlur stdDeviation="6.75325" result="effect1_foregroundBlur_1224_1504" />
    </filter>
    <linearGradient id="paint0_linear_1224_1504" x1="11.4805" y1="13.3506" x2="31.653" y2="35.0495" gradientUnits="userSpaceOnUse">
      <stop stop-color="#FF5741" />
      <stop offset="1" stop-color="#E1FF9B" />
    </linearGradient>
    <linearGradient id="paint1_linear_1224_1504" x1="16.9727" y1="7.75957" x2="23.4196" y2="12.5776" gradientUnits="userSpaceOnUse">
      <stop stop-color="#FFCFBF" />
      <stop offset="1" stop-color="white" />
    </linearGradient>
    <linearGradient id="paint2_linear_1224_1504" x1="15.7" y1="6.68922" x2="12.3158" y2="24.6974" gradientUnits="userSpaceOnUse">
      <stop stop-color="white" />
      <stop offset="1" stop-color="#FFCFBF" />
    </linearGradient>
    <clipPath id="clip0_1224_1504">
      <rect width="32" height="32" rx="16" fill="white" />
    </clipPath>
  </defs>
</svg>

