<svg width="20" height="20" viewBox="0 0 20 20" fill="none" xmlns="http://www.w3.org/2000/svg">
<g clip-path="url(#clip0_1138_2019)">
<path d="M14.0568 2.14355H16.4909C16.9213 2.14355 17.334 2.29406 17.6383 2.56197C17.9426 2.82988 18.1136 3.19325 18.1136 3.57213V17.8578C18.1136 18.2367 17.9426 18.6001 17.6383 18.868C17.334 19.1359 16.9213 19.2864 16.4909 19.2864H3.50919C3.07882 19.2864 2.66607 19.1359 2.36176 18.868C2.05744 18.6001 1.88647 18.2367 1.88647 17.8578V3.57213C1.88647 3.19325 2.05744 2.82988 2.36176 2.56197C2.66607 2.29406 3.07882 2.14355 3.50919 2.14355H5.94325" stroke="#DDE0E3" stroke-width="1.5" stroke-linecap="round" stroke-linejoin="round"/>
<path d="M12.4341 0.714844H7.56595C6.66975 0.714844 5.94324 1.35444 5.94324 2.14342V2.8577C5.94324 3.64668 6.66975 4.28627 7.56595 4.28627H12.4341C13.3303 4.28627 14.0568 3.64668 14.0568 2.8577V2.14342C14.0568 1.35444 13.3303 0.714844 12.4341 0.714844Z" stroke="#DDE0E3" stroke-width="1.5" stroke-linecap="round" stroke-linejoin="round"/>
<path d="M9.21485 7.84375L11.9427 14.379H10.324L9.64452 12.7409H6.89667L6.19722 14.379H4.57849L7.3763 7.84375H9.21485ZM7.3763 11.62H9.17489L8.29558 9.47325L7.3763 11.62Z" fill="#DDE0E3"/>
<path d="M12.8625 7.84375H14.3813V14.379H12.8625V7.84375Z" fill="#DDE0E3"/>
</g>
<defs>
<clipPath id="clip0_1138_2019">
<rect width="20" height="20" fill="white"/>
</clipPath>
</defs>
</svg>
