<svg width="20" height="19" viewBox="0 0 20 19" fill="none" xmlns="http://www.w3.org/2000/svg">
<path d="M7.143 7.17857C8.9182 7.17857 10.3573 5.73949 10.3573 3.96429C10.3573 2.18908 8.9182 0.75 7.143 0.75C5.3678 0.75 3.92871 2.18908 3.92871 3.96429C3.92871 5.73949 5.3678 7.17857 7.143 7.17857Z" stroke="#DDE0E3" stroke-width="1.5" stroke-linecap="round" stroke-linejoin="round"/>
<path d="M13.5715 17.8933H0.714355V16.4647C0.714355 14.7597 1.39165 13.1246 2.59724 11.919C3.80283 10.7134 5.43796 10.0361 7.14293 10.0361C8.84789 10.0361 10.483 10.7134 11.6886 11.919C12.8942 13.1246 13.5715 14.7597 13.5715 16.4647V17.8933Z" stroke="#DDE0E3" stroke-width="1.5" stroke-linecap="round" stroke-linejoin="round"/>
<path d="M12.8572 0.75C13.7097 0.75 14.5272 1.08865 15.13 1.69144C15.7328 2.29424 16.0715 3.1118 16.0715 3.96429C16.0715 4.81677 15.7328 5.63433 15.13 6.23713C14.5272 6.83992 13.7097 7.17857 12.8572 7.17857" stroke="#DDE0E3" stroke-width="1.5" stroke-linecap="round" stroke-linejoin="round"/>
<path d="M15.1431 10.3066C16.36 10.7696 17.4076 11.5911 18.1474 12.6625C18.8872 13.7339 19.2842 15.0047 19.2859 16.3066V17.8924H17.1431" stroke="#DDE0E3" stroke-width="1.5" stroke-linecap="round" stroke-linejoin="round"/>
</svg>
