<svg width="23" height="21" viewBox="0 0 23 21" fill="none" xmlns="http://www.w3.org/2000/svg">
<path fill-rule="evenodd" clip-rule="evenodd" d="M11.0447 0C4.94804 0 0 3.84358 0 8.57074C0 11.5197 1.91074 14.0931 4.82655 15.6615L3.60058 20.1567C3.57745 20.2461 3.58221 20.3405 3.61423 20.4271C3.64624 20.5137 3.70398 20.5885 3.77969 20.6414C3.85541 20.6943 3.94549 20.7227 4.03784 20.723C4.1302 20.7232 4.22042 20.6952 4.2964 20.6427L9.66414 17.0752C10.117 17.0752 10.5809 17.1525 11.0447 17.1525C17.1414 17.1525 22.0895 13.309 22.0895 8.57074C22.0895 3.83254 17.1414 0 11.0447 0Z" fill="black"/>
</svg>
