<svg width="70" height="70" viewBox="0 0 70 70" fill="none" xmlns="http://www.w3.org/2000/svg">
<path d="M65.7748 32.8951C64.6651 16.3349 50.3408 3.80973 33.7806 4.91941C30.2605 5.15529 27.5982 8.20006 27.8341 11.7201C28.0699 15.2402 31.1147 17.9025 34.6348 17.6666C44.1549 17.0287 52.3896 24.2291 53.0275 33.7493C53.6655 43.2694 46.465 51.5041 36.9449 52.142C33.4249 52.3779 30.7625 55.4227 30.9984 58.9427C31.2343 62.4628 34.279 65.1251 37.7991 64.8893C54.3593 63.7796 66.8844 49.4553 65.7748 32.8951Z" fill="url(#paint0_linear_513_3346)"/>
<path d="M5.95009 36.9038C7.05977 53.464 21.3841 65.9891 37.9443 64.8794C41.4643 64.6435 44.1267 61.5988 43.8908 58.0787C43.6549 54.5587 40.6101 51.8963 37.0901 52.1322C27.57 52.7701 19.3352 45.5697 18.6973 36.0496C18.0594 26.5294 25.2598 18.2947 34.7799 17.6568C38.3 17.4209 40.9623 14.3761 40.7265 10.8561C40.4906 7.33604 37.4458 4.6737 33.9258 4.90957C17.3655 6.01925 4.84041 20.3435 5.95009 36.9038Z" fill="url(#paint1_linear_513_3346)"/>
<path d="M65.775 32.8951C65.5391 29.375 62.4943 26.7127 58.9743 26.9486C55.4542 27.1844 52.7919 30.2292 53.0278 33.7493C53.6657 43.2694 46.4653 51.5041 36.9451 52.1421C33.4251 52.3779 30.7628 55.4227 30.9986 58.9428C31.2345 62.4628 34.2793 65.1251 37.7993 64.8893C54.3595 63.7796 66.8847 49.4553 65.775 32.8951Z" fill="white"/>
<defs>
<linearGradient id="paint0_linear_513_3346" x1="38.7255" y1="11.9619" x2="56.7429" y2="25.4269" gradientUnits="userSpaceOnUse">
<stop stop-color="#FFCFBF"/>
<stop offset="1" stop-color="white"/>
</linearGradient>
<linearGradient id="paint1_linear_513_3346" x1="35.1693" y1="8.9693" x2="25.7115" y2="59.2969" gradientUnits="userSpaceOnUse">
<stop stop-color="white"/>
<stop offset="1" stop-color="#FFCFBF"/>
</linearGradient>
</defs>
</svg>
