<svg width="181" height="76" viewBox="0 0 181 76" fill="none" xmlns="http://www.w3.org/2000/svg">
<path d="M4.48438 20.5088C6.96114 20.5088 8.96875 22.5164 8.96875 24.9932V42.5361C8.96875 48.076 13.4601 52.5674 19 52.5674H28.6709C26.2862 49.3362 24.8752 45.3423 24.875 41.0186C24.8751 30.2652 33.5934 21.5474 44.3467 21.5469C50.7025 21.5469 56.3465 24.5926 59.9004 29.3037C63.4543 24.5923 69.0992 21.547 75.4551 21.5469C82.7989 21.5469 89.191 25.6139 92.5078 31.6172C95.8243 25.6127 102.22 21.546 109.564 21.5459C120.318 21.5461 129.036 30.2641 129.036 41.0176C129.036 51.7712 120.318 60.489 109.564 60.4893C104.79 60.4892 100.418 58.7697 97.0312 55.918V71.2998C97.0312 73.7879 95.0135 75.8057 92.5254 75.8057C90.0374 75.8055 88.0205 73.7878 88.0205 71.2998V55.8916C84.6291 58.7599 80.2444 60.4902 75.4551 60.4902C69.0992 60.4901 63.4543 57.4437 59.9004 52.7324C56.3464 57.4433 50.7023 60.4902 44.3467 60.4902C43.8694 60.4902 43.3963 60.4714 42.9277 60.4375H30.7363V60.4287H18.6152C8.33435 60.4287 0 52.0944 0 41.8135V24.9932C0 22.5165 2.00773 20.5089 4.48438 20.5088ZM148.575 20.2041C151.052 20.2041 153.06 22.2185 153.06 24.6953C155.598 21.5676 159.913 20.2891 163.806 20.2891C171.421 20.2891 180.56 25.2766 180.56 37.957V56.043C180.56 58.5197 178.552 60.5283 176.075 60.5283C173.598 60.5283 171.591 58.5197 171.591 56.043V38.2949C171.591 31.8702 168.291 27.9815 162.706 27.9814C157.206 28.066 152.975 32.3774 153.06 38.2949V56.043C153.06 58.5197 151.052 60.5283 148.575 60.5283C146.099 60.5282 144.091 58.5197 144.091 56.043V24.6885C144.091 22.2119 146.099 20.2042 148.575 20.2041ZM136.478 20.1191C138.954 20.1191 140.962 22.1277 140.962 24.6045V55.959C140.962 58.4356 138.954 60.4434 136.478 60.4434C134.001 60.4433 131.993 58.4356 131.993 55.959V24.6045C131.993 22.1278 134.001 20.1192 136.478 20.1191ZM44.3467 29.3828C37.9206 29.3834 32.7111 34.5924 32.7109 41.0186C32.7114 47.4444 37.9208 52.6547 44.3467 52.6553C50.773 52.6553 55.9829 47.4447 55.9834 41.0186C55.9833 34.592 50.7732 29.3828 44.3467 29.3828ZM75.4551 29.3828C69.0288 29.3831 63.8195 34.5922 63.8193 41.0186C63.8198 47.4446 69.029 52.655 75.4551 52.6553C81.8814 52.6553 87.0913 47.4447 87.0918 41.0186C87.0917 34.5921 81.8816 29.3828 75.4551 29.3828ZM109.564 29.3818C103.138 29.382 97.9289 34.5912 97.9287 41.0176C97.9287 47.4441 103.138 52.6542 109.564 52.6543C115.991 52.654 121.201 47.444 121.201 41.0176C121.201 34.5912 115.991 29.3821 109.564 29.3818ZM136.478 0C139.439 0 141.555 2.1135 141.555 5.07227C141.555 8.03098 139.439 10.1445 136.478 10.1445C133.516 10.1444 131.4 8.03092 131.4 5.07227C131.4 2.11356 133.516 8.74851e-05 136.478 0Z" fill="white"/>
</svg>
