<svg width="15" height="15" viewBox="0 0 15 15" fill="none" xmlns="http://www.w3.org/2000/svg">
<path d="M8.20338 9.88626L5.18311 10.4726L5.68648 7.17168L11.4552 0.971578C11.5488 0.869805 11.6602 0.789025 11.7828 0.733899C11.9055 0.678772 12.0371 0.650391 12.17 0.650391C12.3029 0.650391 12.4345 0.678772 12.5572 0.733899C12.6799 0.789025 12.7912 0.869805 12.8848 0.971578L13.952 2.12256C14.0463 2.2235 14.1212 2.3436 14.1723 2.47592C14.2235 2.60823 14.2498 2.75016 14.2498 2.8935C14.2498 3.03684 14.2235 3.17877 14.1723 3.31109C14.1212 3.44341 14.0463 3.5635 13.952 3.66444L8.20338 9.88626Z" stroke="#737980" stroke-width="1.3" stroke-linecap="round" stroke-linejoin="round"/>
<path d="M12.7388 10.0452V13.1988C12.7388 13.4776 12.628 13.745 12.4309 13.9421C12.2338 14.1393 11.9664 14.25 11.6876 14.25H1.70111C1.42231 14.25 1.15493 14.1393 0.957794 13.9421C0.760654 13.745 0.649902 13.4776 0.649902 13.1988V3.21234C0.649902 2.93354 0.760654 2.66616 0.957794 2.46902C1.15493 2.27188 1.42231 2.16113 1.70111 2.16113H4.85473" stroke="#737980" stroke-width="1.3" stroke-linecap="round" stroke-linejoin="round"/>
</svg>
