<svg width="20" height="20" viewBox="0 0 20 20" fill="none" xmlns="http://www.w3.org/2000/svg">
<path d="M9.64456 0.650392C8.01755 0.650899 6.42115 1.09271 5.02538 1.92876C3.62961 2.76481 2.48675 3.9638 1.71852 5.39801C0.950286 6.83223 0.585461 8.44797 0.662895 10.0731C0.74033 11.6983 1.25712 13.272 2.15824 14.6267L0.649902 18.6397L5.70075 17.7264C6.91697 18.3207 8.25166 18.6329 9.60532 18.6396C10.959 18.6463 12.2967 18.3474 13.5188 17.7651C14.7408 17.1829 15.8157 16.3323 16.6632 15.2768C17.5108 14.2213 18.1092 12.9881 18.4138 11.6691C18.7184 10.3502 18.7214 8.97948 18.4226 7.65921C18.1237 6.33893 17.5307 5.10314 16.6877 4.04396C15.8448 2.98477 14.7736 2.12951 13.5541 1.54193C12.3346 0.954344 10.9982 0.649593 9.64456 0.650392V0.650392Z" stroke="white" stroke-width="1.3" stroke-linecap="round" stroke-linejoin="round"/>
</svg>
