<svg width="22" height="24" viewBox="0 0 22 24" fill="none" xmlns="http://www.w3.org/2000/svg">
<path d="M7.84637 3.65039L8.58351 1.74753C8.70783 1.42536 8.92655 1.14824 9.21102 0.952469C9.4955 0.7567 9.83247 0.651411 10.1778 0.650391H11.5835C11.9288 0.651411 12.2658 0.7567 12.5503 0.952469C12.8348 1.14824 13.0535 1.42536 13.1778 1.74753L13.9149 3.65039L16.4178 5.09039L18.4407 4.78182C18.7775 4.7361 19.1203 4.79155 19.4255 4.94112C19.7308 5.09068 19.9847 5.32762 20.1549 5.62182L20.8407 6.82182C21.0164 7.1207 21.0973 7.46584 21.0728 7.81168C21.0484 8.15753 20.9196 8.48781 20.7035 8.75896L19.4521 10.3532V13.2332L20.7378 14.8275C20.9539 15.0987 21.0826 15.429 21.1071 15.7748C21.1316 16.1207 21.0506 16.4658 20.8749 16.7647L20.1892 17.9647C20.019 18.2589 19.7651 18.4958 19.4598 18.6454C19.1546 18.7949 18.8118 18.8504 18.4749 18.8047L16.4521 18.4961L13.9492 19.9361L13.2121 21.839C13.0878 22.1611 12.869 22.4383 12.5846 22.634C12.3001 22.8298 11.9631 22.9351 11.6178 22.9361H10.1778C9.83247 22.9351 9.4955 22.8298 9.21102 22.634C8.92655 22.4383 8.70783 22.1611 8.58351 21.839L7.84637 19.9361L5.34351 18.4961L3.32065 18.8047C2.98382 18.8504 2.64101 18.7949 2.33576 18.6454C2.03052 18.4958 1.77664 18.2589 1.60637 17.9647L0.920652 16.7647C0.744941 16.4658 0.663985 16.1207 0.688469 15.7748C0.712953 15.429 0.841727 15.0987 1.0578 14.8275L2.30922 13.2332V10.3532L1.02351 8.75896C0.807441 8.48781 0.678668 8.15753 0.654183 7.81168C0.629699 7.46584 0.710655 7.1207 0.886366 6.82182L1.57208 5.62182C1.74235 5.32762 1.99624 5.09068 2.30148 4.94112C2.60672 4.79155 2.94954 4.7361 3.28637 4.78182L5.30922 5.09039L7.84637 3.65039ZM7.45208 11.7932C7.45208 12.4714 7.65316 13.1342 8.0299 13.6981C8.40664 14.2619 8.94211 14.7013 9.56859 14.9608C10.1951 15.2203 10.8845 15.2882 11.5495 15.1559C12.2146 15.0236 12.8255 14.6971 13.305 14.2176C13.7845 13.7381 14.1111 13.1272 14.2433 12.4621C14.3756 11.7971 14.3077 11.1077 14.0482 10.4812C13.7887 9.8547 13.3493 9.31923 12.7855 8.9425C12.2216 8.56576 11.5588 8.36468 10.8807 8.36468C9.97134 8.36468 9.09927 8.7259 8.45629 9.36888C7.8133 10.0119 7.45208 10.8839 7.45208 11.7932V11.7932Z" stroke="#3A3D40" stroke-width="1.3" stroke-linecap="round" stroke-linejoin="round"/>
</svg>
