<svg width="311" height="311" viewBox="0 0 311 311" fill="none" xmlns="http://www.w3.org/2000/svg">
<g filter="url(#filter0_d_1141_1910)">
<path d="M264 155.5C264 95.5771 215.423 47 155.5 47C95.5771 47 47 95.5771 47 155.5C47 215.423 95.5771 264 155.5 264C215.423 264 264 215.423 264 155.5ZM296 155.5C296 233.096 233.096 296 155.5 296C77.904 296 15 233.096 15 155.5C15 77.904 77.904 15 155.5 15C233.096 15 296 77.904 296 155.5Z" fill="white" fill-opacity="0.01" shape-rendering="crispEdges"/>
</g>
<path d="M155.5 14C183.486 14 210.844 22.2985 234.113 37.8467C257.383 53.3949 275.519 75.4948 286.229 101.351C296.938 127.206 299.741 155.657 294.281 183.105C288.821 210.554 275.345 235.767 255.556 255.556C235.767 275.345 210.554 288.821 183.105 294.281C155.657 299.741 127.206 296.938 101.351 286.229C75.4948 275.519 53.3949 257.383 37.8467 234.113C22.2985 210.844 14 183.486 14 155.5C14 146.111 21.6112 138.5 31 138.5C40.3888 138.5 48 146.111 48 155.5C48 176.761 54.3049 197.545 66.1172 215.224C77.9294 232.902 94.7183 246.681 114.361 254.817C134.004 262.954 155.62 265.082 176.473 260.935C197.325 256.787 216.48 246.548 231.514 231.514C246.548 216.48 256.787 197.325 260.935 176.473C265.082 155.62 262.954 134.004 254.817 114.361C246.681 94.7183 232.902 77.9294 215.224 66.1172C197.545 54.305 176.761 48 155.5 48C146.111 48 138.5 40.3888 138.5 31C138.5 21.6112 146.111 14 155.5 14Z" fill="url(#paint0_radial_1141_1910)"/>
<path d="M155.5 14C183.486 14 210.844 22.2985 234.113 37.8467C257.383 53.3949 275.519 75.4948 286.229 101.351C296.938 127.206 299.741 155.657 294.281 183.105C288.821 210.554 275.345 235.767 255.556 255.556C235.767 275.345 210.554 288.821 183.105 294.281C155.657 299.741 127.206 296.938 101.351 286.229C75.4948 275.519 53.3949 257.383 37.8467 234.113C22.2985 210.844 14 183.486 14 155.5C14 146.111 21.6112 138.5 31 138.5C40.3888 138.5 48 146.111 48 155.5C48 176.761 54.3049 197.545 66.1172 215.224C77.9294 232.902 94.7183 246.681 114.361 254.817C134.004 262.954 155.62 265.082 176.473 260.935C197.325 256.787 216.48 246.548 231.514 231.514C246.548 216.48 256.787 197.325 260.935 176.473C265.082 155.62 262.954 134.004 254.817 114.361C246.681 94.7183 232.902 77.9294 215.224 66.1172C197.545 54.305 176.761 48 155.5 48C146.111 48 138.5 40.3888 138.5 31C138.5 21.6112 146.111 14 155.5 14Z" fill="url(#paint1_radial_1141_1910)" fill-opacity="0.6"/>
<defs>
<filter id="filter0_d_1141_1910" x="0" y="0" width="311" height="311" filterUnits="userSpaceOnUse" color-interpolation-filters="sRGB">
<feFlood flood-opacity="0" result="BackgroundImageFix"/>
<feColorMatrix in="SourceAlpha" type="matrix" values="0 0 0 0 0 0 0 0 0 0 0 0 0 0 0 0 0 0 127 0" result="hardAlpha"/>
<feOffset/>
<feGaussianBlur stdDeviation="7.5"/>
<feComposite in2="hardAlpha" operator="out"/>
<feColorMatrix type="matrix" values="0 0 0 0 0.487248 0 0 0 0 0.487248 0 0 0 0 0.487248 0 0 0 0.12 0"/>
<feBlend mode="normal" in2="BackgroundImageFix" result="effect1_dropShadow_1141_1910"/>
<feBlend mode="normal" in="SourceGraphic" in2="effect1_dropShadow_1141_1910" result="shape"/>
</filter>
<radialGradient id="paint0_radial_1141_1910" cx="0" cy="0" r="1" gradientUnits="userSpaceOnUse" gradientTransform="translate(250 106) rotate(156.486) scale(226.835 172.239)">
<stop stop-color="#FF3A21"/>
<stop offset="1" stop-color="#FFCAC3"/>
</radialGradient>
<radialGradient id="paint1_radial_1141_1910" cx="0" cy="0" r="1" gradientUnits="userSpaceOnUse" gradientTransform="translate(89 224.5) rotate(-52.5184) scale(140.508 87.167)">
<stop stop-color="#FF3A21"/>
<stop offset="1" stop-color="#FF3A21" stop-opacity="0"/>
</radialGradient>
</defs>
</svg>
