<svg width="515" height="515" viewBox="0 0 515 515" fill="none" xmlns="http://www.w3.org/2000/svg">
<path d="M483.915 242.014C475.751 120.178 370.365 28.0285 248.529 36.1925C222.632 37.9279 203.045 60.3287 204.78 86.2262C206.515 112.124 228.916 131.711 254.814 129.976C324.855 125.282 385.439 178.257 390.132 248.298C394.825 318.339 341.851 378.923 271.81 383.616C245.912 385.352 226.325 407.752 228.061 433.65C229.796 459.547 252.197 479.135 278.094 477.399C399.93 469.235 492.079 363.849 483.915 242.014Z" fill="url(#paint0_linear_3906_18975)"/>
<path d="M43.7762 271.506C51.9403 393.342 157.326 485.491 279.162 477.327C305.059 475.592 324.647 453.191 322.911 427.293C321.176 401.396 298.775 381.809 272.878 383.544C202.837 388.237 142.253 335.263 137.559 265.222C132.866 195.181 185.841 134.597 255.881 129.903C281.779 128.168 301.366 105.767 299.631 79.8696C297.895 53.9721 275.495 34.3849 249.597 36.1202C127.761 44.2843 35.6121 149.67 43.7762 271.506Z" fill="url(#paint1_linear_3906_18975)"/>
<path d="M483.914 242.013C482.178 216.116 459.777 196.529 433.88 198.264C407.982 199.999 388.395 222.4 390.131 248.298C394.824 318.339 341.849 378.923 271.808 383.616C245.911 385.352 226.324 407.752 228.059 433.65C229.794 459.547 252.195 479.135 278.093 477.399C399.929 469.235 492.078 363.849 483.914 242.013Z" fill="white"/>
<defs>
<linearGradient id="paint0_linear_3906_18975" x1="284.91" y1="88.0052" x2="417.467" y2="187.069" gradientUnits="userSpaceOnUse">
<stop stop-color="#FFCFBF"/>
<stop offset="1" stop-color="white"/>
</linearGradient>
<linearGradient id="paint1_linear_3906_18975" x1="258.746" y1="65.9883" x2="189.164" y2="436.256" gradientUnits="userSpaceOnUse">
<stop stop-color="white"/>
<stop offset="1" stop-color="#FFCFBF"/>
</linearGradient>
</defs>
</svg>
