<svg width="20" height="20" viewBox="0 0 20 20" fill="none" xmlns="http://www.w3.org/2000/svg">
<path d="M10 4.35742C10.8284 4.35742 11.5 3.68585 11.5 2.85742C11.5 2.02899 10.8284 1.35742 10 1.35742C9.17157 1.35742 8.5 2.02899 8.5 2.85742C8.5 3.68585 9.17157 4.35742 10 4.35742Z" fill="#737980"/>
<path d="M10 11.5C10.8284 11.5 11.5 10.8284 11.5 10C11.5 9.17157 10.8284 8.5 10 8.5C9.17157 8.5 8.5 9.17157 8.5 10C8.5 10.8284 9.17157 11.5 10 11.5Z" fill="#737980"/>
<path d="M10 18.6426C10.8284 18.6426 11.5 17.971 11.5 17.1426C11.5 16.3142 10.8284 15.6426 10 15.6426C9.17157 15.6426 8.5 16.3142 8.5 17.1426C8.5 17.971 9.17157 18.6426 10 18.6426Z" fill="#737980"/>
</svg>
