<svg width="20" height="20" viewBox="0 0 20 20" fill="none" xmlns="http://www.w3.org/2000/svg">
<path d="M11.4421 13.0448L7.66675 13.7778L8.29597 9.65161L15.5069 1.90148C15.6239 1.77427 15.7631 1.67329 15.9164 1.60439C16.0698 1.53548 16.2342 1.5 16.4004 1.5C16.5665 1.5 16.731 1.53548 16.8844 1.60439C17.0377 1.67329 17.1769 1.77427 17.2939 1.90148L18.6278 3.34021C18.7458 3.46639 18.8394 3.61651 18.9033 3.78191C18.9672 3.9473 19.0001 4.12471 19.0001 4.30389C19.0001 4.48307 18.9672 4.66047 18.9033 4.82587C18.8394 4.99127 18.7458 5.14139 18.6278 5.26757L11.4421 13.0448Z" stroke="#737980" stroke-linecap="round" stroke-linejoin="round"/>
<path d="M17.1111 13.2437V17.1858C17.1111 17.5343 16.9727 17.8685 16.7262 18.1149C16.4798 18.3613 16.1456 18.4998 15.7971 18.4998H3.31401C2.96551 18.4998 2.63129 18.3613 2.38486 18.1149C2.13844 17.8685 2 17.5343 2 17.1858V4.70268C2 4.35418 2.13844 4.01996 2.38486 3.77354C2.63129 3.52711 2.96551 3.38867 3.31401 3.38867H7.25604" stroke="#737980" stroke-linecap="round" stroke-linejoin="round"/>
</svg>
