<svg width="20" height="20" viewBox="0 0 20 20" fill="none" xmlns="http://www.w3.org/2000/svg">
<g clip-path="url(#clip0_1478_1348)">
<path d="M1.42847 5H18.5713" stroke="#FF543F" stroke-linecap="round" stroke-linejoin="round"/>
<path d="M3.57129 5H16.4284V17.8571C16.4284 18.236 16.2779 18.5994 16.01 18.8673C15.7421 19.1352 15.3787 19.2857 14.9999 19.2857H4.99986C4.62098 19.2857 4.25762 19.1352 3.98971 18.8673C3.7218 18.5994 3.57129 18.236 3.57129 17.8571V5Z" stroke="#FF543F" stroke-linecap="round" stroke-linejoin="round"/>
<path d="M6.42847 4.99958V4.2853C6.42847 3.33809 6.80474 2.42969 7.47451 1.75991C8.14429 1.09014 9.05269 0.713867 9.9999 0.713867C10.9471 0.713867 11.8555 1.09014 12.5253 1.75991C13.195 2.42969 13.5713 3.33809 13.5713 4.2853V4.99958" stroke="#FF543F" stroke-linecap="round" stroke-linejoin="round"/>
<path d="M7.85693 7.85645V15.7136" stroke="#FF543F" stroke-linecap="round" stroke-linejoin="round"/>
<path d="M12.1428 7.85645V15.7136" stroke="#FF543F" stroke-linecap="round" stroke-linejoin="round"/>
</g>
<defs>
<clipPath id="clip0_1478_1348">
<rect width="20" height="20" fill="white"/>
</clipPath>
</defs>
</svg>
